<?xml version="1.0" encoding="UTF-8"?>
<svg id="a" xmlns="http://www.w3.org/2000/svg" version="1.1" viewBox="0 0 500 500">
  <!-- Generator: Adobe Illustrator 29.5.1, SVG Export Plug-In . SVG Version: 2.1.0 Build 141)  -->
  <defs>
    <style>
      .st0 {
        fill: aqua;
      }
    </style>
  </defs>
  <path class="st0" d="M250,0L33.5,125v250l216.5,125,216.5-125V125L250,0ZM442.7,347.5c-28-16.2-62.3-36-90.4-52.2-15.8,9.1-85.2,49.2-102.3,59.1-17.5-10.1-86.1-49.7-102.3-59.1-28.1,16.2-62.3,36-90.4,52.2v-194.9c59.1,34.1,133.2,76.9,192.7,111.2,59.5-34.4,133.4-77,192.7-111.2v194.9h0ZM379.9,338.8l-129.9,75-129.9-75,27.6-16,102.3,59.1,102.3-59.1,27.6,16h0ZM250,118.5l-102,58.9-27.7-16,129.6-74.8,129.7,74.9-27.6,16-102-58.9h0ZM328.1,191.1l-78.1,45.1-78.1-45.1,78.1-45.1,78.1,45.1ZM250,27.5l180.7,104.4-27.3,15.8L250,59l-153.5,88.6-27.2-15.7L250,27.5ZM250,472.5l-180.7-104.4,27-15.6,153.8,88.8,153.8-88.8,27,15.6-180.7,104.4h0Z"/>
</svg>