<svg xmlns="http://www.w3.org/2000/svg" width="92" height="108" viewBox="0 0 92 108" fill="none"><path d="M78.5325 22.1521C77.9221 22.153 77.3129 22.2045 76.711 22.306C74.4625 15.8412 70.2609 10.2374 64.6889 6.27183C59.1169 2.30626 52.4507 0.175485 45.615 0.17505C38.7802 0.17336 32.1145 2.3023 26.5426 6.26645C20.9708 10.2306 16.7693 15.8333 14.5211 22.2972C13.9185 22.1958 13.3085 22.1443 12.6975 22.1433C9.78739 22.1433 6.99646 23.3011 4.93872 25.3618C2.88098 27.4226 1.72498 30.2175 1.72498 33.1319C1.72498 36.0462 2.88098 38.8412 4.93872 40.9019C6.99646 42.9627 9.78739 44.1204 12.6975 44.1204C13.3085 44.1202 13.9184 44.0694 14.5211 43.9688C16.7667 50.4355 20.9672 56.0416 26.5392 60.0086C32.1113 63.9757 38.7784 66.1069 45.615 66.1063C52.4509 66.108 59.1178 63.9783 64.6901 60.0129C70.2625 56.0474 74.4638 50.443 76.711 43.9776C77.313 44.0783 77.9222 44.129 78.5325 44.1292C81.4426 44.1292 84.2335 42.9715 86.2912 40.9107C88.349 38.85 89.505 36.055 89.505 33.1407C89.505 30.2263 88.349 27.4314 86.2912 25.3706C84.2335 23.3099 81.4426 22.1521 78.5325 22.1521ZM12.985 37.5141C12.8884 37.5141 12.7918 37.5273 12.6931 37.5273C11.529 37.5273 10.4127 37.0642 9.5896 36.2399C8.7665 35.4156 8.30408 34.2976 8.30408 33.1319C8.30408 31.9661 8.7665 30.8482 9.5896 30.0239C10.4127 29.1996 11.529 28.7365 12.6931 28.7365C12.7918 28.7365 12.8884 28.7365 12.985 28.7519C12.7911 30.2038 12.6935 31.667 12.6931 33.1319C12.6935 34.5975 12.791 36.0614 12.985 37.5141ZM45.615 59.5132C38.6308 59.5132 31.9327 56.7346 26.9941 51.7888C22.0555 46.843 19.281 40.1351 19.281 33.1407C19.281 26.1463 22.0555 19.4383 26.9941 14.4925C31.9327 9.54669 38.6308 6.76817 45.615 6.76817C52.5992 6.76817 59.2973 9.54669 64.2359 14.4925C69.1745 19.4383 71.949 26.1463 71.949 33.1407C71.949 40.1351 69.1745 46.843 64.2359 51.7888C59.2973 56.7346 52.5992 59.5132 45.615 59.5132ZM78.5325 37.5361C78.4359 37.5361 78.3394 37.5361 78.2428 37.5229C78.4361 36.0702 78.5328 34.6062 78.5325 33.1407C78.5327 31.6759 78.436 30.2126 78.2428 28.7606C78.3394 28.7606 78.4359 28.7453 78.5325 28.7453C79.6965 28.7453 80.8129 29.2084 81.636 30.0327C82.4591 30.857 82.9215 31.9749 82.9215 33.1407C82.9215 34.3064 82.4591 35.4244 81.636 36.2487C80.8129 37.073 79.6965 37.5361 78.5325 37.5361V37.5361ZM56.5875 28.0859C56.1801 28.0859 55.7893 27.9239 55.5013 27.6354C55.2132 27.3468 55.0513 26.9556 55.0513 26.5476H58.1236C58.1236 26.9556 57.9618 27.3468 57.6737 27.6354C57.3856 27.9239 56.9949 28.0859 56.5875 28.0859ZM33.1063 26.5476H36.1786C36.1786 26.9556 36.0168 27.3468 35.7287 27.6354C35.4406 27.9239 35.0499 28.0859 34.6425 28.0859C34.2351 28.0859 33.8443 27.9239 33.5563 27.6354C33.2682 27.3468 33.1063 26.9556 33.1063 26.5476ZM64.4724 26.5476C64.4833 26.6948 64.4877 26.8398 64.4877 26.9871C64.4877 28.794 63.771 30.5269 62.4952 31.8045C61.2194 33.0822 59.489 33.8 57.6847 33.8C55.8805 33.8 54.1501 33.0822 52.8743 31.8045C51.5985 30.5269 50.8818 28.794 50.8818 26.9871C50.8818 26.8398 50.8818 26.6948 50.8993 26.5476H52.1985C52.1985 27.7133 52.6609 28.8313 53.484 29.6556C54.3071 30.4799 55.4234 30.943 56.5875 30.943C57.7515 30.943 58.8679 30.4799 59.691 29.6556C60.5141 28.8313 60.9765 27.7133 60.9765 26.5476H64.4724ZM27.0429 26.5476H30.2535C30.2535 27.7133 30.7159 28.8313 31.539 29.6556C32.3621 30.4799 33.4784 30.943 34.6425 30.943C35.8065 30.943 36.9229 30.4799 37.746 29.6556C38.5691 28.8313 39.0315 27.7133 39.0315 26.5476H42.2443C41.9804 28.3782 41.0667 30.0523 39.6705 31.2632C38.2744 32.4741 36.4894 33.1406 34.6425 33.1407C32.7959 33.1401 31.0115 32.4733 29.6158 31.2625C28.2201 30.0516 27.3067 28.3778 27.0429 26.5476V26.5476ZM42.3232 23.251H25.8645V19.9544H42.3232V23.251ZM51.1012 19.9544H65.3655V23.251H51.1012V19.9544ZM45.615 39.9536C35.4347 39.9536 27.1812 43.3007 27.1812 47.4258C27.1812 51.5509 35.4347 54.898 45.615 54.898C55.7953 54.898 64.0488 51.5531 64.0488 47.4258C64.0488 43.2985 55.7975 39.9536 45.615 39.9536ZM49.5651 41.9315C49.8561 41.9315 50.1352 42.0473 50.341 42.2534C50.5467 42.4594 50.6623 42.7389 50.6623 43.0304C50.6623 43.3218 50.5467 43.6013 50.341 43.8074C50.1352 44.0134 49.8561 44.1292 49.5651 44.1292C49.2741 44.1292 48.995 44.0134 48.7892 43.8074C48.5834 43.6013 48.4678 43.3218 48.4678 43.0304C48.4678 42.7389 48.5834 42.4594 48.7892 42.2534C48.995 42.0473 49.2741 41.9315 49.5651 41.9315ZM41.6649 41.9315C41.9559 41.9315 42.235 42.0473 42.4408 42.2534C42.6465 42.4594 42.7621 42.7389 42.7621 43.0304C42.7621 43.3218 42.6465 43.6013 42.4408 43.8074C42.235 44.0134 41.9559 44.1292 41.6649 44.1292C41.3739 44.1292 41.0948 44.0134 40.889 43.8074C40.6832 43.6013 40.5676 43.3218 40.5676 43.0304C40.5676 42.7389 40.6832 42.4594 40.889 42.2534C41.0948 42.0473 41.3739 41.9315 41.6649 41.9315ZM57.6847 51.3817H33.5452V50.7223H57.6847V51.3817Z" fill="white"></path><path d="M33.7585 83.4604V86.6889C33.7585 87.7266 34.2468 88.2455 35.2234 88.2455C35.9756 88.2455 36.4705 87.8995 36.708 87.2077C36.774 86.9899 36.8532 86.8426 36.9456 86.7657C37.0512 86.6889 37.2161 86.6504 37.4405 86.6504H41.4788C41.5976 86.6504 41.6966 86.6953 41.7757 86.785C41.8681 86.8618 41.9143 86.9579 41.9143 87.0732C41.9143 88.1878 41.5844 89.123 40.9245 89.8789C39.7104 91.2882 37.8166 91.9928 35.2432 91.9928C33.224 91.9928 31.6139 91.5636 30.413 90.7052C29.212 89.8341 28.6116 88.5017 28.6116 86.7081V83.4412C28.6116 81.686 29.2252 80.3665 30.4526 79.4825C31.6799 78.5985 33.2768 78.1565 35.2432 78.1565C37.8166 78.1565 39.7104 78.8611 40.9245 80.2704C41.5844 81.0262 41.9143 81.9615 41.9143 83.0761C41.9143 83.1914 41.8681 83.2939 41.7757 83.3835C41.6966 83.4604 41.5976 83.4988 41.4788 83.4988H37.4405C37.2293 83.4988 37.071 83.4604 36.9654 83.3835C36.873 83.3067 36.7872 83.1593 36.708 82.9415C36.4573 82.2497 35.9624 81.9038 35.2234 81.9038C34.2468 81.9038 33.7585 82.4227 33.7585 83.4604Z" fill="white"></path><path d="M51.4339 78.3487H55.3138C55.459 78.3487 55.5844 78.3999 55.69 78.5024C55.7955 78.6049 55.8483 78.7266 55.8483 78.8675V91.2818C55.8483 91.4227 55.7955 91.5444 55.69 91.6469C55.5844 91.7494 55.459 91.8006 55.3138 91.8006H51.4339C51.2887 91.8006 51.1633 91.7494 51.0578 91.6469C50.9522 91.5444 50.8994 91.4227 50.8994 91.2818V87.1309H47.6925V91.2818C47.6925 91.4227 47.6397 91.5444 47.5341 91.6469C47.4285 91.7494 47.3032 91.8006 47.158 91.8006H43.278C43.1329 91.8006 43.0075 91.7558 42.9019 91.6661C42.7963 91.5636 42.7435 91.4355 42.7435 91.2818V78.8675C42.7435 78.7266 42.7963 78.6049 42.9019 78.5024C43.0075 78.3999 43.1329 78.3487 43.278 78.3487H47.158C47.3032 78.3487 47.4285 78.3999 47.5341 78.5024C47.6397 78.6049 47.6925 78.7266 47.6925 78.8675V82.9031H50.8994V78.8675C50.8994 78.7266 50.9522 78.6049 51.0578 78.5024C51.1633 78.3999 51.2887 78.3487 51.4339 78.3487Z" fill="white"></path><path d="M61.9609 78.3487H66.2566C66.7316 78.3487 67.0286 78.5601 67.1474 78.9828L71.5618 91.2433C71.575 91.2818 71.5816 91.3458 71.5816 91.4355C71.5816 91.5124 71.5354 91.5956 71.443 91.6853C71.3639 91.7622 71.2649 91.8006 71.1461 91.8006H67.4839C67.088 91.8006 66.8306 91.6405 66.7119 91.3202L66.2368 90.0519H61.9807L61.5056 91.3202C61.3868 91.6405 61.1294 91.8006 60.7335 91.8006H57.0713C56.9525 91.8006 56.847 91.7622 56.7546 91.6853C56.6754 91.5956 56.6358 91.5124 56.6358 91.4355C56.6358 91.3458 56.6424 91.2818 56.6556 91.2433L61.0701 78.9828C61.1888 78.5601 61.4858 78.3487 61.9609 78.3487ZM62.9903 86.3045H65.2272L64.0988 82.7302L62.9903 86.3045Z" fill="white"></path><path d="M76.8171 91.8006H72.7788C72.6336 91.8006 72.5082 91.7494 72.4026 91.6469C72.2971 91.5444 72.2443 91.4227 72.2443 91.2818V78.8675C72.2443 78.7266 72.2971 78.6049 72.4026 78.5024C72.5082 78.3999 72.6336 78.3487 72.7788 78.3487H76.8171C76.9623 78.3487 77.0877 78.3999 77.1932 78.5024C77.2988 78.6049 77.3516 78.7266 77.3516 78.8675V91.2818C77.3516 91.4227 77.2988 91.5444 77.1932 91.6469C77.0877 91.7494 76.9623 91.8006 76.8171 91.8006Z" fill="white"></path><path d="M86.8945 78.3487H90.4775C90.6227 78.3487 90.748 78.3999 90.8536 78.5024C90.9592 78.6049 91.012 78.7266 91.012 78.8675V91.2818C91.012 91.4227 90.9592 91.5444 90.8536 91.6469C90.748 91.7494 90.6227 91.8006 90.4775 91.8006H87.3497C87.0066 91.8006 86.7361 91.6533 86.5381 91.3586L83.1926 86.4583V91.2818C83.1926 91.4227 83.1399 91.5444 83.0343 91.6469C82.9287 91.7494 82.8033 91.8006 82.6582 91.8006H79.0751C78.93 91.8006 78.8046 91.7494 78.699 91.6469C78.5934 91.5444 78.5406 91.4227 78.5406 91.2818V78.8675C78.5406 78.7266 78.5934 78.6049 78.699 78.5024C78.8046 78.3999 78.93 78.3487 79.0751 78.3487H82.2029C82.5724 78.3487 82.8429 78.496 83.0145 78.7907L86.36 84.1138V78.8675C86.36 78.7266 86.4128 78.6049 86.5183 78.5024C86.6239 78.3999 86.7493 78.3487 86.8945 78.3487Z" fill="white"></path><path d="M13.4459 93.5721H16.8164C16.9728 93.5721 17.1079 93.6226 17.2217 93.7236C17.3354 93.8245 17.3923 93.9444 17.3923 94.0832V106.312C17.3923 106.451 17.3354 106.571 17.2217 106.672C17.1079 106.773 16.9728 106.823 16.8164 106.823H12.9553C12.7989 106.823 12.6638 106.773 12.55 106.672C12.4362 106.571 12.3793 106.451 12.3793 106.312V101.125L10.9714 103.17C10.7439 103.485 10.4808 103.643 10.1821 103.643H8.68892C8.39028 103.643 8.12718 103.485 7.89964 103.17L6.49174 101.125V106.312C6.49174 106.451 6.43486 106.571 6.32109 106.672C6.20732 106.773 6.07221 106.823 5.91578 106.823H2.05472C1.89829 106.823 1.76318 106.773 1.64941 106.672C1.53564 106.571 1.47876 106.451 1.47876 106.312V94.0832C1.47876 93.9444 1.53564 93.8245 1.64941 93.7236C1.76318 93.6226 1.89829 93.5721 2.05472 93.5721H5.42515C5.82334 93.5721 6.1291 93.7425 6.34242 94.0832L9.43553 98.6265L12.5287 94.0832C12.742 93.7425 13.0477 93.5721 13.4459 93.5721Z" fill="white"></path><path d="M20.3928 94.7836C21.7012 93.8498 23.4291 93.3828 25.5765 93.3828C27.7239 93.3828 29.4446 93.8561 30.7388 94.8026C32.0471 95.7365 32.7013 97.0553 32.7013 98.759V101.712C32.7013 103.441 32.0542 104.76 30.7601 105.668C29.4802 106.564 27.7523 107.012 25.5765 107.012C23.4006 107.012 21.6656 106.564 20.3715 105.668C19.0916 104.76 18.4516 103.441 18.4516 101.712V98.759C18.4516 97.0426 19.0987 95.7175 20.3928 94.7836ZM24.4246 102.943C24.709 103.195 25.093 103.321 25.5765 103.321C26.06 103.321 26.444 103.195 26.7284 102.943C27.0128 102.69 27.155 102.305 27.155 101.788V98.6075C27.155 98.1027 27.0128 97.7241 26.7284 97.4717C26.444 97.2067 26.06 97.0742 25.5765 97.0742C25.093 97.0742 24.709 97.2067 24.4246 97.4717C24.1401 97.7241 23.9979 98.1027 23.9979 98.6075V101.788C23.9979 102.305 24.1401 102.69 24.4246 102.943Z" fill="white"></path><path d="M42.7598 93.5721H46.6208C46.7773 93.5721 46.9124 93.6226 47.0261 93.7236C47.1399 93.8245 47.1968 93.9444 47.1968 94.0832V106.312C47.1968 106.451 47.1399 106.571 47.0261 106.672C46.9124 106.773 46.7773 106.823 46.6208 106.823H43.2504C42.8807 106.823 42.5891 106.678 42.3758 106.388L38.7707 101.561V106.312C38.7707 106.451 38.7138 106.571 38.6001 106.672C38.4863 106.773 38.3512 106.823 38.1948 106.823H34.3337C34.1773 106.823 34.0422 106.773 33.9284 106.672C33.8146 106.571 33.7577 106.451 33.7577 106.312V94.0832C33.7577 93.9444 33.8146 93.8245 33.9284 93.7236C34.0422 93.6226 34.1773 93.5721 34.3337 93.5721H37.7041C38.1023 93.5721 38.3939 93.7172 38.5787 94.0075L42.1838 99.2511V94.0832C42.1838 93.9444 42.2407 93.8245 42.3545 93.7236C42.4682 93.6226 42.6033 93.5721 42.7598 93.5721Z" fill="white"></path><path d="M62.5151 106.198C62.5578 106.262 62.5791 106.344 62.5791 106.445C62.5791 106.533 62.5293 106.621 62.4298 106.71C62.3445 106.785 62.2378 106.823 62.1098 106.823H57.2461C56.8337 106.823 56.5422 106.678 56.3715 106.388L53.7691 102.261V106.312C53.7691 106.451 53.7122 106.571 53.5984 106.672C53.4846 106.773 53.3495 106.823 53.1931 106.823H49.1187C48.9623 106.823 48.8272 106.773 48.7134 106.672C48.5996 106.571 48.5428 106.451 48.5428 106.312V94.0832C48.5428 93.9444 48.5996 93.8245 48.7134 93.7236C48.8272 93.6226 48.9623 93.5721 49.1187 93.5721H53.1931C53.3495 93.5721 53.4846 93.6226 53.5984 93.7236C53.7122 93.8245 53.7691 93.9444 53.7691 94.0832V97.8314L56.1796 93.9886C56.336 93.7109 56.6204 93.5721 57.0328 93.5721H61.7472C61.8752 93.5721 61.9818 93.6163 62.0671 93.7046C62.1667 93.7803 62.2165 93.8687 62.2165 93.9696C62.2165 94.058 62.1951 94.1337 62.1525 94.1968L58.3127 99.9137L62.5151 106.198Z" fill="white"></path><path d="M68.5042 103.132H75.0744C75.2309 103.132 75.366 103.182 75.4797 103.283C75.5935 103.384 75.6504 103.504 75.6504 103.643V106.312C75.6504 106.451 75.5935 106.571 75.4797 106.672C75.366 106.773 75.2309 106.823 75.0744 106.823H63.9606C63.8041 106.823 63.669 106.773 63.5552 106.672C63.4415 106.571 63.3846 106.451 63.3846 106.312V94.0832C63.3846 93.9444 63.4415 93.8245 63.5552 93.7236C63.669 93.6226 63.8041 93.5721 63.9606 93.5721H74.9038C75.0602 93.5721 75.1953 93.6226 75.3091 93.7236C75.4229 93.8245 75.4797 93.9444 75.4797 94.0832V96.7524C75.4797 96.8912 75.4229 97.0111 75.3091 97.112C75.1953 97.213 75.0602 97.2635 74.9038 97.2635H68.5042V98.4561H74.4345C74.5909 98.4561 74.726 98.5066 74.8398 98.6075C74.9536 98.7085 75.0104 98.8284 75.0104 98.9672V101.428C75.0104 101.567 74.9536 101.687 74.8398 101.788C74.726 101.889 74.5909 101.939 74.4345 101.939H68.5042V103.132Z" fill="white"></path><path d="M85.6267 106.823H81.4457C81.2892 106.823 81.1541 106.773 81.0404 106.672C80.9266 106.571 80.8697 106.451 80.8697 106.312V102.583L76.07 94.1589C76.0416 94.1085 76.0274 94.0391 76.0274 93.9507C76.0274 93.8624 76.07 93.7803 76.1554 93.7046C76.2549 93.6163 76.3687 93.5721 76.4967 93.5721H80.5071C80.9337 93.5721 81.2323 93.7299 81.403 94.0454L83.5362 97.8503L85.6694 94.0454C85.84 93.7299 86.1387 93.5721 86.5653 93.5721H90.5757C90.7037 93.5721 90.8103 93.6163 90.8957 93.7046C90.9952 93.7803 91.045 93.8624 91.045 93.9507C91.045 94.0391 91.0308 94.1085 91.0023 94.1589L86.2027 102.583V106.312C86.2027 106.451 86.1458 106.571 86.032 106.672C85.9182 106.773 85.7831 106.823 85.6267 106.823Z" fill="white"></path><path fill-rule="evenodd" clip-rule="evenodd" d="M3.10443 77.6562C1.91731 77.6562 0.954956 78.6194 0.954956 79.8075V90.5639C0.954956 91.752 1.91731 92.7152 3.10443 92.7152H25.4589C26.646 92.7152 27.6084 91.752 27.6084 90.5639V79.8075C27.6084 78.6194 26.646 77.6562 25.4589 77.6562H3.10443ZM8.13583 79.0547C6.36024 79.0547 4.93154 79.4785 3.84972 80.3261C2.77966 81.1736 2.24463 82.3762 2.24463 83.9339V86.6141C2.24463 88.1832 2.77378 89.3801 3.83208 90.2047C4.90214 91.0179 6.33672 91.4245 8.13583 91.4245C9.93494 91.4245 11.3636 91.0179 12.4219 90.2047C13.492 89.3801 14.027 88.1832 14.027 86.6141V83.9339C14.027 82.3877 13.4861 81.1908 12.4043 80.3432C11.3342 79.4842 9.91142 79.0547 8.13583 79.0547ZM8.13583 88.0744C7.73603 88.0744 7.41854 87.9598 7.18336 87.7308C6.94818 87.5017 6.8306 87.1524 6.8306 86.6828V83.7965C6.8306 83.3383 6.94818 82.9947 7.18336 82.7657C7.41854 82.5251 7.73603 82.4049 8.13583 82.4049C8.53563 82.4049 8.85312 82.5251 9.0883 82.7657C9.32348 82.9947 9.44107 83.3383 9.44107 83.7965V86.6828C9.44107 87.1524 9.32348 87.5017 9.0883 87.7308C8.85312 87.9598 8.53563 88.0744 8.13583 88.0744ZM25.4126 79.2265H22.22C22.0907 79.2265 21.979 79.2723 21.8849 79.364C21.7908 79.4556 21.7438 79.5644 21.7438 79.6904V84.3806L18.7629 79.6217C18.61 79.3582 18.369 79.2265 18.0397 79.2265H15.2529C15.1235 79.2265 15.0118 79.2723 14.9178 79.364C14.8237 79.4556 14.7767 79.5644 14.7767 79.6904V90.7889C14.7767 90.9149 14.8237 91.0237 14.9178 91.1153C15.0118 91.2069 15.1235 91.2527 15.2529 91.2527H18.4454C18.5748 91.2527 18.6865 91.2069 18.7806 91.1153C18.8746 91.0237 18.9217 90.9149 18.9217 90.7889V86.4766L21.9025 90.8576C22.0789 91.121 22.32 91.2527 22.6257 91.2527H25.4126C25.5419 91.2527 25.6536 91.2069 25.7477 91.1153C25.8418 91.0237 25.8888 90.9149 25.8888 90.7889V79.6904C25.8888 79.5644 25.8418 79.4556 25.7477 79.364C25.6536 79.2723 25.5419 79.2265 25.4126 79.2265Z" fill="#11EEBB"></path></svg>